<svg width="21" height="21" xmlns="http://www.w3.org/2000/svg"><path d="M6.027 0C5.114 0 4.72.418 4.305.787a7.632 7.632 0 00-1.123 1.28 6.767 6.767 0 00-.375-.525A5.947 5.947 0 001.273.164L0 1.936s.379.21.861.82c.482.611.973 1.559.973 3.019v9.975H4.23V5.775c0-.148-.028-.287-.037-.427h.037c0-.311.416-1.345.973-2.132.276-.394.472-.597.766-.633.295-.036.596.313.881.731.286.418.534.886.711 1.28.178.393.263.738.263.754V15.75h2.395V5.348c0-.311.417-1.345.974-2.132.276-.394.477-.67.823-.67s.538.35.824.768c.285.418.533.886.71 1.28.179.393.263.738.263.754v8.105c0 2.043 1.418 3.802 2.695 5.119.117.119.22.213.337.328H15.01V21H21v-5.25h-2.396v1.74a10.096 10.096 0 01-.3-.296c-1.118-1.149-2.095-2.633-2.095-3.74V5.347c0-.557-.178-1.02-.412-1.542a10.8 10.8 0 00-.899-1.575c-.346-.512-.71-.984-1.123-1.378C13.364.46 13.003 0 12.016 0c-.912 0-1.305.418-1.722.787A7.57 7.57 0 009.134 2.1l-.15.23c-.023-.033-.052-.066-.075-.099-.346-.512-.711-.984-1.123-1.378C7.374.46 7.014 0 6.026 0z" fill="#220B57"/></svg>