<svg width="20" height="21" xmlns="http://www.w3.org/2000/svg"><path d="M11.053 0C7.31 0 4.21 3.093 4.21 6.825c0 1.046.291 1.915.625 2.69-.202-.028-.416-.065-.625-.065-2.314 0-4.21 1.89-4.21 4.2 0 2.31 1.896 4.2 4.21 4.2 2.315 0 4.211-1.89 4.211-4.2 0-1.632-.625-2.896-1.151-3.938-.527-1.041-.954-1.853-.954-2.887 0-2.568 2.163-4.725 4.737-4.725 2.574 0 4.736 2.157 4.736 4.725 0 1.107-.834 2.362-1.907 3.937-1.074 1.575-2.303 3.5-2.303 6.038 0 2.321 1.883 4.2 4.21 4.2A4.203 4.203 0 0020 16.8h-2.105c0 1.251-.851 2.1-2.106 2.1-1.254 0-2.105-.849-2.105-2.1 0-1.87.876-3.335 1.908-4.856 1.032-1.522 2.303-3.076 2.303-5.119 0-3.732-3.1-6.825-6.842-6.825zM4.21 11.55c1.027 0 1.879.71 2.072 1.673.016.14.033.28.033.427 0 1.173-.93 2.1-2.105 2.1a2.086 2.086 0 01-2.106-2.1c0-1.173.93-2.1 2.106-2.1z" fill="#220B57"/></svg>