<svg width="22" height="22" xmlns="http://www.w3.org/2000/svg"><path d="M6.314 0C5.358 0 4.946.438 4.51.825a7.999 7.999 0 00-1.177 1.34 7.09 7.09 0 00-.392-.55C2.191.663 1.333.173 1.333.173L0 2.028s.397.22.902.86 1.02 1.632 1.02 3.162V16.5h2.51V6.05c0-.155-.03-.3-.04-.447h.04c0-.326.436-1.41 1.019-2.234.29-.413.578-.782.824-.997.01.008.029-.013.039 0 .255.245.563.662.862 1.1.3.438.56.928.746 1.34.186.413.274.774.274.791V16.5h2.51V5.603c0-.326.436-1.41 1.02-2.234.289-.413.578-.782.823-.997.01.008.03-.013.04 0 .254.245.563.662.862 1.1a9.1 9.1 0 01.745 1.34c.186.413.275.774.275.791V16.5c0 .632.122 1.259.353 1.856-.8.206-1.73.344-2.863.344v2.2c1.593 0 2.965-.232 4.157-.619C17.19 21.308 18.814 22 20.745 22v-2.2c-1.01 0-1.745-.236-2.314-.619a7.638 7.638 0 001.608-1.41C21.564 15.968 22 13.812 22 12.1c0-1.611-.446-2.913-1.098-3.85-.652-.937-1.392-1.65-2.667-1.65-.632 0-.98.21-1.255.447V5.603c0-.584-.186-1.07-.431-1.615a11.314 11.314 0 00-.941-1.65c-.363-.538-.745-1.032-1.177-1.444C14 .48 13.623 0 12.588 0c-.956 0-1.367.438-1.804.825-.436.387-.848.85-1.215 1.375l-.157.24c-.025-.034-.054-.068-.079-.103-.362-.537-.745-1.03-1.176-1.443C7.725.48 7.348 0 6.314 0zm12.039 8.972c.02.043.113.013.392.412.382.55.745 1.47.745 2.716 0 1.37-.372 3.09-1.45 4.366a5.64 5.64 0 01-.903.859c-.078-.275-.157-.541-.157-.825v-4.4c0-.348.329-1.418.785-2.234.206-.366.407-.684.588-.894z" fill="#220B57"/></svg>