<svg width="20" height="22" xmlns="http://www.w3.org/2000/svg"><path d="M0 0v2.2c1.697 0 2.452.348 2.917.756.464.408.72.997 1.041 1.822.322.825.686 1.886 1.632 2.716.1.086.2.193.313.275-2.205 1.362-3.68 3.781-3.68 6.531 0 4.241 3.493 7.7 7.777 7.7 4.284 0 7.778-3.459 7.778-7.7 0-2.75-1.476-5.17-3.68-6.531.112-.082.212-.19.312-.275.946-.83 1.31-1.89 1.632-2.716.32-.825.577-1.414 1.041-1.822.465-.408 1.22-.756 2.917-.756V0c-2.027 0-3.464.477-4.41 1.306-.946.83-1.31 1.89-1.632 2.716-.32.825-.577 1.414-1.041 1.822-.465.408-1.22.756-2.917.756-1.697 0-2.452-.348-2.917-.756-.464-.408-.72-.997-1.041-1.822-.322-.825-.686-1.886-1.632-2.716C3.464.477 2.027 0 0 0zm10 8.8c3.082 0 5.556 2.45 5.556 5.5S13.082 19.8 10 19.8s-5.556-2.45-5.556-5.5S6.918 8.8 10 8.8z" fill="#220B57"/></svg>