<svg width="20" height="22" xmlns="http://www.w3.org/2000/svg"><path d="M1.02 0L.033 1.95s1.8 1.005 4.704 1.705V18.31C1.789 19.01 0 20.05 0 20.05L1.053 22s3.425-2.089 8.848-2.089c5.424 0 9.08 2.089 9.08 2.089l.986-1.95s-1.8-1.005-4.704-1.705V3.69C18.211 2.99 20 1.95 20 1.95L18.947 0S15.522 2.089 10.1 2.089C4.675 2.089 1.019 0 1.019 0zm5.822 4.038c1.012.148 2.085.278 3.257.278 1.102 0 2.105-.113 3.059-.243v13.889c-1.012-.148-2.085-.278-3.257-.278-1.102 0-2.105.113-3.059.243V4.038z" fill="#220B57"/></svg>