<svg width="22" height="22" xmlns="http://www.w3.org/2000/svg"><path d="M5.5 0C3.528 0 2.05 1.07 1.203 2.234.357 3.4 0 4.546 0 5.5h2.2c0-.146.236-1.199.79-1.96.555-.76 1.294-1.34 2.51-1.34 1.044 0 1.65.357 2.269 1.237.618.881 1.117 2.355 1.444 4.194.494 2.759.648 6.36.687 10.313v.275c.013 1.233 0 2.5 0 3.781h2.2c0-1.375.009-2.729 0-4.056.043-3.657.206-7.18.688-9.969.33-1.908.807-3.433 1.443-4.4.636-.967 1.255-1.375 2.269-1.375 1.216 0 1.955.58 2.51 1.34.554.761.79 1.814.79 1.96H22c0-.954-.357-2.101-1.203-3.266C19.95 1.07 18.472 0 16.5 0c-1.736 0-3.18.95-4.09 2.337-.598.911-1.04 2.007-1.376 3.232-.34-1.294-.786-2.432-1.443-3.369C8.663.88 7.206 0 5.5 0z" fill="#220B57"/></svg>