<svg width="21" height="15" xmlns="http://www.w3.org/2000/svg"><path d="M0 0v2.143c.263 0 .37.058.558.234.188.176.394.502.656.904.263.402.582.88 1.05 1.306.468.427 1.149.77 1.936.77.787 0 1.497-.347 1.969-.77.471-.423.779-.9 1.05-1.306.27-.406.496-.724.689-.904.193-.18.27-.234.492-.234.262 0 .37.058.558.234.188.176.394.502.656.904.263.402.582.88 1.05 1.306.468.427 1.149.77 1.936.77.787 0 1.468-.343 1.936-.77.468-.427.787-.904 1.05-1.306.262-.402.468-.728.656-.904.189-.176.296-.234.558-.234.262 0 .37.058.558.234.188.176.394.502.656.904.263.402.582.88 1.05 1.306.468.427 1.148.77 1.936.77V3.214c-.262 0-.37-.058-.558-.234-.188-.176-.394-.502-.656-.904-.263-.402-.582-.879-1.05-1.306C18.268.343 17.587 0 16.8 0c-.788 0-1.468.343-1.936.77-.468.427-.787.904-1.05 1.306-.262.402-.468.728-.656.904-.189.176-.295.234-.558.234-.262 0-.37-.058-.558-.234-.188-.176-.394-.502-.656-.904-.263-.402-.582-.879-1.05-1.306C9.868.343 9.187 0 8.4 0c-.775 0-1.448.347-1.903.77-.455.423-.75.908-1.017 1.306-.267.397-.521.724-.722.904-.201.18-.295.234-.558.234-.263 0-.37-.058-.558-.234-.188-.176-.394-.502-.656-.904-.263-.402-.582-.879-1.05-1.306C1.468.343.788 0 0 0zm0 9.643v2.143c.263 0 .37.058.558.234.188.176.394.502.656.904.263.402.582.879 1.05 1.306.468.427 1.149.77 1.936.77.787 0 1.497-.347 1.969-.77.471-.423.779-.9 1.05-1.306.27-.406.496-.724.689-.904.193-.18.27-.234.492-.234.262 0 .37.058.558.234.188.176.394.502.656.904.263.402.582.879 1.05 1.306.468.427 1.149.77 1.936.77.787 0 1.468-.343 1.936-.77.468-.427.787-.904 1.05-1.306.262-.402.468-.728.656-.904.189-.176.296-.234.558-.234.262 0 .37.058.558.234.188.176.394.502.656.904.263.402.582.879 1.05 1.306.468.427 1.148.77 1.936.77v-2.143c-.262 0-.37-.058-.558-.234-.188-.176-.394-.502-.656-.904-.263-.402-.582-.88-1.05-1.306-.468-.427-1.149-.77-1.936-.77-.788 0-1.468.343-1.936.77-.468.427-.787.904-1.05 1.306-.262.402-.468.728-.656.904-.189.176-.295.234-.558.234-.262 0-.37-.058-.558-.234-.188-.176-.394-.502-.656-.904-.263-.402-.582-.88-1.05-1.306-.468-.427-1.149-.77-1.936-.77-.775 0-1.448.347-1.903.77-.455.423-.75.908-1.017 1.306-.267.397-.521.724-.722.904-.201.18-.295.234-.558.234-.263 0-.37-.058-.558-.234-.188-.176-.394-.502-.656-.904-.263-.402-.582-.88-1.05-1.306-.468-.427-1.148-.77-1.936-.77z" fill="#220B57"/></svg>