<svg width="20" height="21" xmlns="http://www.w3.org/2000/svg"><path d="M5.968 0c-.83.057-1.164.37-1.585.722a8.424 8.424 0 00-1.214 1.28c-.067.085-.135.175-.202.262a6.81 6.81 0 00-.438-.722C1.884.632 1.146.164 1.146.164L0 1.936s.341.209.775.82c.435.61.877 1.557.877 3.017v9.97H3.81v-9.97c0-.33.336-1.742.96-2.537.312-.398.695-.689 1.088-.689.393 0 1.132.209 1.351.409.22.2.325.354.596 1.112.27.758.32 1.43.32 1.61v5.868c0 1.295.46 2.578 1.383 3.575.434.471.99.86 1.618 1.148-.535 1.529-1.977 2.624-3.742 2.624H5.968v2.099h1.416c2.756 0 5.023-1.82 5.799-4.264.122.008.215.065.337.065h1.955c2.268 0 4.236-1.656 4.518-3.87v-.065c.143-2.48-1.98-4.699-4.585-4.461-.025.004-.042-.004-.068 0v.033c-2.322.184-3.978 2.18-3.978 4.362v1.115c-.072-.061-.173-.094-.236-.164a3.29 3.29 0 01-.843-2.197v-6.2c0-.639.065-1.314-.192-2.11-.172-.531-.466-1.062-.882-1.593-.476-.556-.874-.941-1.195-1.156C7.532.166 6.797-.056 5.968 0zm9.575 10.496h.033c1.223-.131 2.25.955 2.226 2.198a2.366 2.366 0 01-2.327 2H13.52v-1.902c0-1.156.935-2.23 2.023-2.296z" fill="#220B57"/></svg>