<svg width="21" height="21" xmlns="http://www.w3.org/2000/svg"><path d="M10.598 0C3.966 0 .262 4.233.262 4.233L1.837 5.61S4.845 2.1 10.598 2.1c1.338 0 2.498.234 3.511.558-1.509.791-2.559 2.354-2.559 4.167 0 2.596 2.129 4.725 4.725 4.725C18.871 11.55 21 9.421 21 6.825c0-1.239-.488-2.37-1.28-3.216l.033-.032s-.115-.082-.131-.099C19.302 3.162 16.004 0 10.598 0zm5.677 4.2c.73 0 1.399.283 1.87.755.472.471.755 1.14.755 1.87a2.612 2.612 0 01-2.625 2.625 2.612 2.612 0 01-2.625-2.625A2.612 2.612 0 0116.275 4.2zM4.725 9.45C2.129 9.45 0 11.579 0 14.175c0 1.239.488 2.37 1.28 3.216l-.033.032S4.717 21 10.402 21c6.537 0 10.237-4.233 10.237-4.233l-1.575-1.378S16.045 18.9 10.402 18.9c-1.338 0-2.498-.234-3.511-.558 1.509-.791 2.559-2.354 2.559-4.167 0-2.596-2.129-4.725-4.725-4.725zm0 2.1a2.612 2.612 0 012.625 2.625A2.612 2.612 0 014.725 16.8 2.612 2.612 0 012.1 14.175a2.612 2.612 0 012.625-2.625z" fill="#220B57"/></svg>